<svg width="102" height="48" viewBox="0 0 102 48" fill="none" xmlns="http://www.w3.org/2000/svg">
<path fill-rule="evenodd" clip-rule="evenodd" d="M4.80005 31.1998H31.2038V4.7998H4.80005V31.1998ZM24.7288 18.062L30.6978 6.12521V29.9988L24.7288 18.062ZM24.4455 18.6276L30.4797 30.6939H21.034V25.45L24.4455 18.6276ZM24.1627 18.062L20.7809 24.8252L14.6203 12.5049L18.0021 5.74257L24.1627 18.062ZM14.337 13.0709L20.5273 25.45V30.6939H10.6786V20.3867L14.337 13.0709ZM5.30641 5.30571H10.1722V20.2678L5.30641 29.9988V5.30571ZM5.52409 30.6939L10.1722 21.3989V30.6939H5.52409ZM17.6545 5.30571L10.6786 19.2552V5.30571H17.6545ZM24.4455 17.4961L18.3497 5.30571H30.5414L24.4455 17.4961Z" fill="#2E1C17"/>
<path fill-rule="evenodd" clip-rule="evenodd" d="M94.1814 24.8076L95.0123 31.1998H97.2L93.2771 4.7998H90.4484L86.5255 31.1998H88.7129L89.5539 24.8076H94.1814ZM91.9192 7.40185L93.9368 22.9268H89.8013L91.8438 7.40185H91.9192Z" fill="#2E1C17"/>
<path d="M75.9255 22.4123V31.1998H73.7752V22.4123L69.5507 4.7998H71.7006L74.8316 18.8671H74.9069L78.0757 4.7998H80.2256L75.9255 22.4123Z" fill="#2E1C17"/>
<path d="M58.8274 4.7998H60.9777V31.1998H58.8274V4.7998Z" fill="#2E1C17"/>
<path d="M50.8103 29.3892H44.7749V4.7998H42.6254V31.1998H50.8103V29.3892Z" fill="#2E1C17"/>
<path d="M97.2 43.1647H95.1274V39.6353H97.2V39.9581H95.4726V41.1882H96.904V41.5114H95.4726V42.842H97.2V43.1647Z" fill="#2E1C17"/>
<path d="M91.8201 41.7074H90.7839V41.3855H92.1407V41.5014C92.1407 41.7903 92.1087 42.0414 92.0444 42.2546C91.9804 42.4686 91.8899 42.6451 91.7732 42.7842C91.6566 42.9237 91.5138 43.0277 91.3461 43.0966C91.1783 43.1655 90.9911 43.1998 90.7839 43.1998C90.5764 43.1998 90.3868 43.1635 90.2159 43.089C90.0447 43.0149 89.8968 42.9069 89.7716 42.7639C89.6464 42.6212 89.5496 42.4447 89.4806 42.2351C89.4111 42.0247 89.3768 41.7836 89.3768 41.5114V41.2388C89.3768 40.9802 89.4111 40.7487 89.4806 40.5454C89.5496 40.3418 89.6464 40.1705 89.7716 40.0314C89.8968 39.8919 90.0455 39.7851 90.2187 39.711C90.3911 39.6373 90.5795 39.5998 90.7839 39.5998C90.9743 39.5998 91.1463 39.6281 91.2993 39.6831C91.4526 39.7385 91.5852 39.8138 91.6968 39.9074C91.8087 40.0015 91.8993 40.1127 91.9683 40.241C92.0373 40.3681 92.0849 40.5024 92.1115 40.6439H91.7463C91.7198 40.543 91.6812 40.449 91.6301 40.3617C91.579 40.2741 91.5134 40.1979 91.4327 40.1318C91.3519 40.0664 91.2583 40.015 91.1514 39.9784C91.0445 39.9413 90.9216 39.923 90.7839 39.923C90.6322 39.923 90.4925 39.9517 90.3642 40.0087C90.2358 40.0656 90.1246 40.1501 90.0306 40.2605C89.937 40.3717 89.8641 40.5096 89.811 40.6741C89.7583 40.8387 89.7322 41.0272 89.7322 41.2388V41.5114C89.7322 41.7361 89.7595 41.9338 89.8141 42.1035C89.868 42.2729 89.9421 42.4152 90.0361 42.5295C90.1293 42.6435 90.2405 42.7304 90.3689 42.7894C90.4976 42.8483 90.6357 42.877 90.7839 42.877C90.9412 42.877 91.0832 42.8555 91.208 42.8117C91.3332 42.7682 91.4393 42.6993 91.5263 42.6049C91.6137 42.5112 91.6824 42.3905 91.7315 42.2422C91.7807 42.0944 91.8103 41.9163 91.8201 41.7074Z" fill="#2E1C17"/>
<path fill-rule="evenodd" clip-rule="evenodd" d="M86.6375 43.1647L85.8479 41.6525C86.078 41.5815 86.2509 41.4624 86.366 41.2946C86.4814 41.1264 86.5388 40.9212 86.5388 40.6789C86.5388 40.3597 86.4393 40.1059 86.2399 39.9178C86.041 39.7293 85.7375 39.6353 85.3294 39.6353H84.2188V43.1647H84.5648V41.723H85.4184C85.448 41.723 85.4757 41.7214 85.5026 41.7182L86.2427 43.1647H86.6375ZM86.1834 40.6789C86.1834 40.9113 86.1151 41.089 85.979 41.2137C85.842 41.338 85.6177 41.4002 85.3048 41.4002H84.5648V39.9581H85.3048C85.6138 39.9581 85.8377 40.0222 85.9762 40.1501C86.1143 40.2772 86.1834 40.4538 86.1834 40.6789Z" fill="#2E1C17"/>
<path d="M81.3062 43.1647H79.2336V39.6353H81.3062V39.9581H79.5788V41.1882H81.0101V41.5114H79.5788V42.842H81.3062V43.1647Z" fill="#2E1C17"/>
<path d="M76.0745 43.1647H75.7289V39.6353H76.0745V43.1647Z" fill="#2E1C17"/>
<path d="M70.682 40.2605C70.588 40.3717 70.515 40.5088 70.462 40.6714C70.4093 40.8343 70.3832 41.0236 70.3832 41.2388V41.5114C70.3832 41.7361 70.4105 41.9346 70.4651 42.1063C70.5193 42.2773 70.5931 42.4208 70.6871 42.5347C70.7807 42.6495 70.8919 42.7344 71.0199 42.7921C71.1486 42.8487 71.2867 42.877 71.4349 42.877C71.7014 42.877 71.9128 42.8053 72.0688 42.6606C72.2257 42.5164 72.3279 42.3315 72.3774 42.1063H72.743C72.716 42.2637 72.6692 42.4092 72.6021 42.5423C72.5346 42.6754 72.4449 42.7901 72.333 42.8878C72.2214 42.9846 72.0903 43.0615 71.9405 43.1169C71.7907 43.1727 71.6222 43.1998 71.4349 43.1998C71.2274 43.1998 71.0382 43.1635 70.8669 43.089C70.6961 43.0149 70.5478 42.9069 70.423 42.7639C70.2974 42.6212 70.2006 42.4447 70.1316 42.2351C70.0625 42.0247 70.0282 41.7836 70.0282 41.5114V41.2388C70.0282 40.9802 70.0625 40.7487 70.1316 40.5454C70.2006 40.3418 70.2974 40.1705 70.423 40.0314C70.5478 39.8919 70.6968 39.7851 70.8697 39.711C71.0421 39.6373 71.2309 39.5998 71.4349 39.5998C71.6222 39.5998 71.7907 39.6281 71.9405 39.6831C72.0903 39.7385 72.2214 39.8138 72.333 39.9074C72.4449 40.0015 72.5346 40.1119 72.6021 40.2378C72.6692 40.3637 72.716 40.4996 72.743 40.6439H72.3774C72.3509 40.543 72.3123 40.449 72.2612 40.3617C72.2108 40.2741 72.1457 40.1979 72.0665 40.1318C71.9873 40.0664 71.8956 40.015 71.7899 39.9784C71.685 39.9413 71.5664 39.923 71.4349 39.923C71.2836 39.923 71.1435 39.9517 71.0152 40.0087C70.8868 40.0656 70.776 40.1501 70.682 40.2605Z" fill="#2E1C17"/>
<path d="M66.6865 42.7113H66.6967V39.6353H67.0419V43.1647H66.5582L64.7812 40.0389H64.7715V43.1647H64.4258V39.6353H64.9392L66.6865 42.7113Z" fill="#2E1C17"/>
<path fill-rule="evenodd" clip-rule="evenodd" d="M61.4396 41.2388C61.4396 40.9766 61.4048 40.7439 61.3362 40.5407C61.2667 40.337 61.1688 40.1657 61.0424 40.0262C60.9156 39.8871 60.7643 39.7807 60.5883 39.7082C60.4116 39.6365 60.2185 39.5998 60.0079 39.5998C59.7976 39.5998 59.6041 39.6373 59.4282 39.711C59.2522 39.7851 59.1016 39.8919 58.9768 40.0314C58.8516 40.1705 58.7533 40.3418 58.6831 40.5454C58.6117 40.7487 58.5766 40.9802 58.5766 41.2388V41.5114C58.5766 41.7836 58.6113 42.0247 58.6803 42.2351C58.7498 42.4447 58.8477 42.6212 58.9741 42.7639C59.1009 42.9069 59.2514 43.0149 59.4258 43.089C59.5998 43.1635 59.7941 43.1998 60.0079 43.1998C60.2185 43.1998 60.4116 43.1635 60.5883 43.089C60.7643 43.0149 60.9149 42.9069 61.0401 42.7639C61.1649 42.6212 61.2628 42.4447 61.3334 42.2351C61.4041 42.0247 61.4396 41.7836 61.4396 41.5114V41.2388ZM61.0026 40.6769C61.0573 40.8395 61.0842 41.0272 61.0842 41.2388V41.5114C61.0842 41.7397 61.058 41.939 61.0054 42.1083C60.9523 42.2785 60.8786 42.4208 60.7834 42.5347C60.6874 42.6495 60.5739 42.7344 60.4428 42.7921C60.311 42.8487 60.1662 42.877 60.0079 42.877C59.8534 42.877 59.7106 42.8483 59.5787 42.7894C59.4473 42.7304 59.3338 42.6435 59.2382 42.5295C59.143 42.4152 59.0677 42.2729 59.0135 42.1035C58.9592 41.9338 58.9319 41.7361 58.9319 41.5114V41.2388C58.9319 41.0236 58.9585 40.8343 59.0111 40.6714C59.0634 40.5088 59.1379 40.3717 59.2335 40.2605C59.3287 40.1501 59.4418 40.0656 59.5741 40.0087C59.7055 39.9517 59.8503 39.923 60.0079 39.923C60.1627 39.923 60.3059 39.9517 60.4378 40.0087C60.5692 40.0656 60.6828 40.1505 60.7783 40.2633C60.8735 40.3757 60.948 40.5136 61.0026 40.6769Z" fill="#2E1C17"/>
<path d="M53.7025 40.2605C53.6089 40.3717 53.5356 40.5088 53.4829 40.6714C53.4302 40.8343 53.4041 41.0236 53.4041 41.2388V41.5114C53.4041 41.7361 53.4314 41.9346 53.4856 42.1063C53.5395 42.2773 53.6136 42.4208 53.7076 42.5347C53.8012 42.6495 53.9124 42.7344 54.0404 42.7921C54.1691 42.8487 54.3076 42.877 54.4554 42.877C54.7219 42.877 54.9333 42.8053 55.0898 42.6606C55.2458 42.5164 55.3488 42.3315 55.3983 42.1063H55.7635C55.7369 42.2637 55.6901 42.4092 55.6226 42.5423C55.5552 42.6754 55.4658 42.7901 55.3539 42.8878C55.2419 42.9846 55.1112 43.0615 54.9614 43.1169C54.8116 43.1727 54.6427 43.1998 54.4554 43.1998C54.2479 43.1998 54.0587 43.1635 53.8878 43.089C53.7166 43.0149 53.5683 42.9069 53.4435 42.7639C53.3183 42.6212 53.2215 42.4447 53.1521 42.2351C53.083 42.0247 53.0483 41.7836 53.0483 41.5114V41.2388C53.0483 40.9802 53.083 40.7487 53.1521 40.5454C53.2215 40.3418 53.3183 40.1705 53.4435 40.0314C53.5683 39.8919 53.7174 39.7851 53.8902 39.711C54.063 39.6373 54.251 39.5998 54.4554 39.5998C54.6427 39.5998 54.8116 39.6281 54.9614 39.6831C55.1112 39.7385 55.2419 39.8138 55.3539 39.9074C55.4658 40.0015 55.5552 40.1119 55.6226 40.2378C55.6901 40.3637 55.7369 40.4996 55.7635 40.6439H55.3983C55.3718 40.543 55.3332 40.449 55.2821 40.3617C55.231 40.2741 55.1662 40.1979 55.0874 40.1318C55.0082 40.0664 54.9162 40.015 54.8108 39.9784C54.7055 39.9413 54.5869 39.923 54.4554 39.923C54.3041 39.923 54.1644 39.9517 54.0361 40.0087C53.9073 40.0656 53.7962 40.1501 53.7025 40.2605Z" fill="#2E1C17"/>
<path d="M45.4474 39.9581H44.3118V39.6353H46.9279V39.9581H45.7927V43.1647H45.4474V39.9581Z" fill="#2E1C17"/>
<path d="M39.9438 43.1647H39.5981V39.6353H41.6708V39.9581H39.9438V41.1882H41.3751V41.5114H39.9438V43.1647Z" fill="#2E1C17"/>
<path d="M36.439 43.1647H36.0938V39.6353H36.439V43.1647Z" fill="#2E1C17"/>
<path d="M32.7369 41.7074H31.7008V41.3855H33.058V41.5014C33.058 41.7903 33.026 42.0414 32.9616 42.2546C32.8976 42.4686 32.8071 42.6451 32.6905 42.7842C32.5735 42.9237 32.4311 43.0277 32.2633 43.0966C32.0956 43.1655 31.9079 43.1998 31.7008 43.1998C31.4932 43.1998 31.304 43.1635 31.1332 43.089C30.9619 43.0149 30.8137 42.9069 30.6888 42.7639C30.5636 42.6212 30.4669 42.4447 30.3974 42.2351C30.3284 42.0247 30.2937 41.7836 30.2937 41.5114V41.2388C30.2937 40.9802 30.3284 40.7487 30.3974 40.5454C30.4669 40.3418 30.5636 40.1705 30.6888 40.0314C30.8137 39.8919 30.9623 39.7851 31.1355 39.711C31.3083 39.6373 31.4964 39.5998 31.7008 39.5998C31.8915 39.5998 32.0632 39.6281 32.2165 39.6831C32.3694 39.7385 32.5021 39.8138 32.614 39.9074C32.726 40.0015 32.8161 40.1127 32.8852 40.241C32.9546 40.3681 33.0018 40.5024 33.0283 40.6439H32.6632C32.6367 40.543 32.598 40.449 32.5473 40.3617C32.4962 40.2741 32.4303 40.1979 32.3499 40.1318C32.2688 40.0664 32.1752 40.015 32.0683 39.9784C31.9614 39.9413 31.8389 39.923 31.7008 39.923C31.549 39.923 31.4098 39.9517 31.281 40.0087C31.1527 40.0656 31.0415 40.1501 30.9479 40.2605C30.8542 40.3717 30.7805 40.5096 30.7282 40.6741C30.6756 40.8387 30.649 41.0272 30.649 41.2388V41.5114C30.649 41.7361 30.6764 41.9338 30.7306 42.1035C30.7848 42.2729 30.8589 42.4152 30.9529 42.5295C31.0466 42.6435 31.1577 42.7304 31.2857 42.7894C31.4141 42.8483 31.5525 42.877 31.7008 42.877C31.8584 42.877 31.9996 42.8555 32.1252 42.8117C32.2504 42.7682 32.3562 42.6993 32.4435 42.6049C32.5305 42.5112 32.5992 42.3905 32.6484 42.2422C32.6975 42.0944 32.7272 41.9163 32.7369 41.7074Z" fill="#2E1C17"/>
<path fill-rule="evenodd" clip-rule="evenodd" d="M24.0995 43.1647L23.3095 41.6525C23.5401 41.5815 23.7129 41.4624 23.828 41.2946C23.9431 41.1264 24.0008 40.9212 24.0008 40.6789C24.0008 40.3597 23.9013 40.1059 23.7024 39.9178C23.5026 39.7293 23.1995 39.6353 22.7915 39.6353H21.6808V43.1647H22.0265V41.723H22.88C22.9101 41.723 22.9378 41.7214 22.9643 41.7182L23.7047 43.1647H24.0995ZM23.6454 40.6789C23.6454 40.9113 23.5775 41.089 23.4406 41.2137C23.3037 41.338 23.0794 41.4002 22.7665 41.4002H22.0265V39.9581H22.7665C23.0759 39.9581 23.2998 40.0222 23.4379 40.1501C23.5764 40.2772 23.6454 40.4538 23.6454 40.6789Z" fill="#2E1C17"/>
<path d="M17.9963 42.6001C18.1656 42.4152 18.2502 42.1414 18.2502 41.7784V39.6353H18.5959V41.8035C18.5959 42.0219 18.5646 42.2167 18.5022 42.3885C18.4398 42.5598 18.3524 42.7065 18.2405 42.8272C18.1285 42.9484 17.9935 43.0404 17.8359 43.1046C17.6779 43.1683 17.5032 43.1998 17.3128 43.1998C17.1185 43.1998 16.9426 43.1691 16.7842 43.107C16.6262 43.0448 16.4912 42.9539 16.3793 42.8344C16.2677 42.7156 16.1819 42.569 16.1206 42.396C16.0598 42.2231 16.0293 42.0254 16.0293 41.8035V39.6353H16.375V41.7784C16.375 42.1378 16.46 42.4108 16.6317 42.5981C16.8021 42.7842 17.0296 42.877 17.3128 42.877C17.5987 42.877 17.8266 42.785 17.9963 42.6001Z" fill="#2E1C17"/>
<path fill-rule="evenodd" clip-rule="evenodd" d="M13.0676 41.2388C13.0676 40.9766 13.0329 40.7439 12.9642 40.5407C12.8948 40.337 12.7969 40.1657 12.6705 40.0262C12.5433 39.8871 12.3923 39.7807 12.2164 39.7082C12.0397 39.6365 11.8466 39.5998 11.6359 39.5998C11.4257 39.5998 11.2322 39.6373 11.0562 39.711C10.8799 39.7851 10.7293 39.8919 10.6045 40.0314C10.4793 40.1705 10.3813 40.3418 10.3111 40.5454C10.2397 40.7487 10.2046 40.9802 10.2046 41.2388V41.5114C10.2046 41.7836 10.2393 42.0247 10.3084 42.2351C10.3778 42.4447 10.4757 42.6212 10.6021 42.7639C10.7289 42.9069 10.8795 43.0149 11.0539 43.089C11.2279 43.1635 11.4221 43.1998 11.6359 43.1998C11.8466 43.1998 12.0397 43.1635 12.2164 43.089C12.3923 43.0149 12.5425 42.9069 12.6682 42.7639C12.793 42.6212 12.8905 42.4447 12.9615 42.2351C13.0321 42.0247 13.0676 41.7836 13.0676 41.5114V41.2388ZM12.6307 40.6769C12.6853 40.8395 12.7122 41.0272 12.7122 41.2388V41.5114C12.7122 41.7397 12.6861 41.939 12.633 42.1083C12.5804 42.2785 12.5066 42.4208 12.4111 42.5347C12.3155 42.6495 12.202 42.7344 12.0705 42.7921C11.939 42.8487 11.7939 42.877 11.6359 42.877C11.4814 42.877 11.3383 42.8483 11.2068 42.7894C11.0753 42.7304 10.9618 42.6435 10.8662 42.5295C10.7707 42.4152 10.6958 42.2729 10.6415 42.1035C10.5873 41.9338 10.56 41.7361 10.56 41.5114V41.2388C10.56 41.0236 10.5865 40.8343 10.6392 40.6714C10.6915 40.5088 10.7656 40.3717 10.8616 40.2605C10.9567 40.1501 11.0699 40.0656 11.2017 40.0087C11.3336 39.9517 11.4783 39.923 11.6359 39.923C11.7908 39.923 11.934 39.9517 12.0658 40.0087C12.1973 40.0656 12.3108 40.1505 12.4064 40.2633C12.5016 40.3757 12.5761 40.5136 12.6307 40.6769Z" fill="#2E1C17"/>
<path d="M5.1847 39.6353L6.31055 41.5209L7.33732 39.6353H7.71221L6.4783 41.8788V43.1647H6.13266V41.8788L4.80005 39.6353H5.1847Z" fill="#2E1C17"/>
</svg>
