<svg width="170" height="80" viewBox="0 0 170 80" fill="none" xmlns="http://www.w3.org/2000/svg">
<path fill-rule="evenodd" clip-rule="evenodd" d="M8 52H52.0062V8H8V52ZM41.2145 30.1037L51.1629 10.209V49.9984L41.2145 30.1037ZM40.7425 31.0463L50.7995 51.1568H35.0567V42.417L40.7425 31.0463ZM40.2711 30.1037L34.6347 41.3756L24.367 20.8419L30.0034 9.57128L40.2711 30.1037ZM23.895 21.7851L34.2121 42.417V51.1568H17.7976V33.9782L23.895 21.7851ZM8.84393 8.84317H16.9536V33.78L8.84393 49.9984V8.84317ZM9.20674 51.1568L16.9536 35.6652V51.1568H9.20674ZM29.4241 8.84317L17.7976 32.0923V8.84317H29.4241ZM40.7425 29.1604L30.5827 8.84317H50.9022L40.7425 29.1604Z" fill="#2E1C17"/>
<path fill-rule="evenodd" clip-rule="evenodd" d="M156.969 41.3463L158.354 52H162L155.462 8H150.747L144.209 52H147.855L149.256 41.3463H156.969ZM153.199 12.3367L156.561 38.2116H149.669L153.073 12.3367H153.199Z" fill="#2E1C17"/>
<path d="M126.542 37.3541V52H122.959V37.3541L115.918 8H119.501L124.719 31.4455H124.845L130.126 8H133.709L126.542 37.3541Z" fill="#2E1C17"/>
<path d="M98.0456 8H101.629V52H98.0456V8Z" fill="#2E1C17"/>
<path d="M84.6837 48.9823H74.6247V8H71.0422V52H84.6837V48.9823Z" fill="#2E1C17"/>
<path d="M162 71.9415H158.546V66.0591H162V66.5971H159.121V68.6473H161.507V69.186H159.121V71.4036H162V71.9415Z" fill="#2E1C17"/>
<path d="M153.033 69.5127H151.306V68.9761H153.568V69.1694C153.568 69.6509 153.514 70.0693 153.407 70.4246C153.301 70.7813 153.15 71.0755 152.955 71.3073C152.761 71.5397 152.523 71.7131 152.243 71.828C151.964 71.9429 151.652 72 151.306 72C150.961 72 150.645 71.9396 150.36 71.8154C150.074 71.6918 149.828 71.5118 149.619 71.2734C149.411 71.0356 149.249 70.7414 149.134 70.3921C149.018 70.0414 148.961 69.6396 148.961 69.186V68.7317C148.961 68.3006 149.018 67.9148 149.134 67.576C149.249 67.2367 149.411 66.9511 149.619 66.7193C149.828 66.4868 150.076 66.3088 150.364 66.1853C150.652 66.0624 150.966 66 151.306 66C151.624 66 151.91 66.0472 152.165 66.1388C152.421 66.2311 152.642 66.3567 152.828 66.5127C153.014 66.6695 153.165 66.8548 153.28 67.0686C153.396 67.2805 153.475 67.5043 153.519 67.7401H152.91C152.866 67.5721 152.802 67.4153 152.717 67.2699C152.632 67.1238 152.522 66.9969 152.388 66.8867C152.253 66.7777 152.097 66.6921 151.919 66.631C151.741 66.5692 151.536 66.5386 151.306 66.5386C151.054 66.5386 150.821 66.5865 150.607 66.6814C150.393 66.7764 150.208 66.9172 150.051 67.1012C149.895 67.2865 149.773 67.5163 149.685 67.7906C149.597 68.0649 149.554 68.379 149.554 68.7317V69.186C149.554 69.5605 149.599 69.89 149.69 70.1729C149.78 70.4552 149.903 70.6923 150.06 70.8829C150.215 71.0728 150.401 71.2176 150.615 71.3159C150.829 71.4142 151.059 71.462 151.306 71.462C151.569 71.462 151.805 71.4262 152.013 71.3531C152.222 71.2807 152.399 71.1658 152.544 71.0084C152.689 70.8523 152.804 70.6511 152.886 70.404C152.968 70.1576 153.017 69.8608 153.033 69.5127Z" fill="#2E1C17"/>
<path fill-rule="evenodd" clip-rule="evenodd" d="M144.396 71.9415L143.08 69.4211C143.463 69.3029 143.751 69.1043 143.943 68.8247C144.136 68.5444 144.231 68.2024 144.231 67.7985C144.231 67.2666 144.065 66.8435 143.733 66.53C143.402 66.2159 142.896 66.0591 142.216 66.0591H140.365V71.9415H140.941V69.5386H142.364C142.413 69.5386 142.459 69.536 142.504 69.5307L143.738 71.9415H144.396ZM143.639 67.7985C143.639 68.1857 143.525 68.482 143.298 68.6898C143.07 68.8971 142.696 69.0007 142.175 69.0007H140.941V66.5971H142.175C142.69 66.5971 143.063 66.704 143.294 66.9172C143.524 67.1291 143.639 67.4233 143.639 67.7985Z" fill="#2E1C17"/>
<path d="M135.51 71.9415H132.056V66.0591H135.51V66.5971H132.631V68.6473H135.017V69.186H132.631V71.4036H135.51V71.9415Z" fill="#2E1C17"/>
<path d="M126.791 71.9415H126.215V66.0591H126.791V71.9415Z" fill="#2E1C17"/>
<path d="M117.803 67.1012C117.647 67.2865 117.525 67.5149 117.437 67.7859C117.349 68.0576 117.305 68.373 117.305 68.7317V69.186C117.305 69.5605 117.351 69.8913 117.442 70.1776C117.532 70.4625 117.655 70.7016 117.812 70.8915C117.968 71.0828 118.153 71.2243 118.366 71.3206C118.581 71.4149 118.811 71.462 119.058 71.462C119.502 71.462 119.855 71.3425 120.115 71.1014C120.376 70.861 120.546 70.5528 120.629 70.1776H121.238C121.193 70.4399 121.115 70.6823 121.003 70.9041C120.891 71.126 120.741 71.3172 120.555 71.48C120.369 71.6413 120.15 71.7695 119.901 71.8619C119.651 71.9548 119.37 72 119.058 72C118.712 72 118.397 71.9396 118.111 71.8154C117.827 71.6918 117.58 71.5118 117.372 71.2734C117.162 71.0356 117.001 70.7414 116.886 70.3921C116.771 70.0414 116.714 69.6396 116.714 69.186V68.7317C116.714 68.3006 116.771 67.9148 116.886 67.576C117.001 67.2367 117.162 66.9511 117.372 66.7193C117.58 66.4868 117.828 66.3088 118.116 66.1853C118.403 66.0624 118.718 66 119.058 66C119.37 66 119.651 66.0472 119.901 66.1388C120.15 66.2311 120.369 66.3567 120.555 66.5127C120.741 66.6695 120.891 66.8534 121.003 67.0633C121.115 67.2732 121.193 67.4997 121.238 67.7401H120.629C120.585 67.5721 120.52 67.4153 120.435 67.2699C120.351 67.1238 120.243 66.9969 120.111 66.8867C119.979 66.7777 119.826 66.6921 119.65 66.631C119.475 66.5692 119.277 66.5386 119.058 66.5386C118.806 66.5386 118.572 66.5865 118.359 66.6814C118.145 66.7764 117.96 66.9172 117.803 67.1012Z" fill="#2E1C17"/>
<path d="M111.144 71.1857H111.161V66.0591H111.736V71.9415H110.93L107.969 66.7319H107.952V71.9415H107.376V66.0591H108.232L111.144 71.1857Z" fill="#2E1C17"/>
<path fill-rule="evenodd" clip-rule="evenodd" d="M102.399 68.7317C102.399 68.2947 102.341 67.9068 102.227 67.5681C102.111 67.2287 101.948 66.9431 101.737 66.7106C101.526 66.4789 101.274 66.3015 100.98 66.1806C100.686 66.0611 100.364 66 100.013 66C99.6626 66 99.3401 66.0624 99.0468 66.1853C98.7536 66.3088 98.5027 66.4868 98.2946 66.7193C98.0859 66.9511 97.922 67.2367 97.805 67.576C97.686 67.9148 97.6275 68.3006 97.6275 68.7317V69.186C97.6275 69.6396 97.6854 70.0414 97.8005 70.3921C97.9162 70.7414 98.0794 71.0356 98.29 71.2734C98.5014 71.5118 98.7523 71.6918 99.0429 71.8154C99.3329 71.9396 99.6567 72 100.013 72C100.364 72 100.686 71.9396 100.98 71.8154C101.274 71.6918 101.525 71.5118 101.733 71.2734C101.941 71.0356 102.105 70.7414 102.222 70.3921C102.34 70.0414 102.399 69.6396 102.399 69.186V68.7317ZM101.671 67.7952C101.762 68.0662 101.807 68.379 101.807 68.7317V69.186C101.807 69.5665 101.763 69.8986 101.676 70.1809C101.587 70.4645 101.464 70.7016 101.306 70.8915C101.146 71.0828 100.956 71.2243 100.738 71.3206C100.518 71.4149 100.277 71.462 100.013 71.462C99.7556 71.462 99.5176 71.4142 99.2978 71.3159C99.0787 71.2176 98.8895 71.0728 98.7302 70.8829C98.5716 70.6923 98.4461 70.4552 98.3557 70.1729C98.2653 69.89 98.2198 69.5605 98.2198 69.186V68.7317C98.2198 68.373 98.264 68.0576 98.3518 67.7859C98.4389 67.5149 98.5631 67.2865 98.7224 67.1012C98.8811 66.9172 99.0696 66.7764 99.29 66.6814C99.5091 66.5865 99.7504 66.5386 100.013 66.5386C100.271 66.5386 100.51 66.5865 100.73 66.6814C100.949 66.7764 101.138 66.9179 101.297 67.1058C101.456 67.2931 101.58 67.5229 101.671 67.7952Z" fill="#2E1C17"/>
<path d="M89.5041 67.1012C89.3481 67.2865 89.2259 67.5149 89.1381 67.7859C89.0503 68.0576 89.0068 68.373 89.0068 68.7317V69.186C89.0068 69.5605 89.0523 69.8913 89.1426 70.1776C89.2324 70.4625 89.3559 70.7016 89.5126 70.8915C89.6686 71.0828 89.8539 71.2243 90.0672 71.3206C90.2818 71.4149 90.5126 71.462 90.759 71.462C91.2031 71.462 91.5555 71.3425 91.8162 71.1014C92.0762 70.861 92.2479 70.5528 92.3305 70.1776H92.939C92.8948 70.4399 92.8168 70.6823 92.7043 70.9041C92.5918 71.126 92.443 71.3172 92.2564 71.48C92.0698 71.6413 91.8519 71.7695 91.6023 71.8619C91.3526 71.9548 91.0711 72 90.759 72C90.4131 72 90.0977 71.9396 89.813 71.8154C89.5275 71.6918 89.2805 71.5118 89.0724 71.2734C88.8637 71.0356 88.7025 70.7414 88.5867 70.3921C88.4717 70.0414 88.4138 69.6396 88.4138 69.186V68.7317C88.4138 68.3006 88.4717 67.9148 88.5867 67.576C88.7025 67.2367 88.8637 66.9511 89.0724 66.7193C89.2805 66.4868 89.5288 66.3088 89.8169 66.1853C90.1049 66.0624 90.4183 66 90.759 66C91.0711 66 91.3526 66.0472 91.6023 66.1388C91.8519 66.2311 92.0698 66.3567 92.2564 66.5127C92.443 66.6695 92.5918 66.8534 92.7043 67.0633C92.8168 67.2732 92.8948 67.4997 92.939 67.7401H92.3305C92.2863 67.5721 92.2219 67.4153 92.1367 67.2699C92.0515 67.1238 91.9436 66.9969 91.8123 66.8867C91.6803 66.7777 91.5269 66.6921 91.3513 66.631C91.1758 66.5692 90.9781 66.5386 90.759 66.5386C90.5067 66.5386 90.2739 66.5865 90.06 66.6814C89.8455 66.7764 89.6602 66.9172 89.5041 67.1012Z" fill="#2E1C17"/>
<path d="M75.7457 66.5971H73.853V66.0591H78.2131V66.5971H76.3211V71.9415H75.7457V66.5971Z" fill="#2E1C17"/>
<path d="M66.5729 71.9415H65.9968V66.0591H69.4512V66.5971H66.5729V68.6473H68.9584V69.186H66.5729V71.9415Z" fill="#2E1C17"/>
<path d="M60.7317 71.9415H60.1562V66.0591H60.7317V71.9415Z" fill="#2E1C17"/>
<path d="M54.5614 69.5127H52.8346V68.9761H55.0965V69.1694C55.0965 69.6509 55.0432 70.0693 54.9359 70.4246C54.8293 70.7813 54.6785 71.0755 54.4841 71.3073C54.289 71.5397 54.0517 71.7131 53.7721 71.828C53.4925 71.9429 53.1798 72 52.8346 72C52.4887 72 52.1733 71.9396 51.8885 71.8154C51.6031 71.6918 51.356 71.5118 51.148 71.2734C50.9393 71.0356 50.778 70.7414 50.6623 70.3921C50.5472 70.0414 50.4894 69.6396 50.4894 69.186V68.7317C50.4894 68.3006 50.5472 67.9148 50.6623 67.576C50.778 67.2367 50.9393 66.9511 51.148 66.7193C51.356 66.4868 51.6038 66.3088 51.8924 66.1853C52.1805 66.0624 52.4939 66 52.8346 66C53.1525 66 53.4386 66.0472 53.6941 66.1388C53.949 66.2311 54.17 66.3567 54.3566 66.5127C54.5432 66.6695 54.6934 66.8548 54.8085 67.0686C54.9242 67.2805 55.0029 67.5043 55.0471 67.7401H54.4386C54.3943 67.5721 54.33 67.4153 54.2454 67.2699C54.1603 67.1238 54.0504 66.9969 53.9165 66.8867C53.7812 66.7777 53.6252 66.6921 53.447 66.631C53.2689 66.5692 53.0647 66.5386 52.8346 66.5386C52.5816 66.5386 52.3495 66.5865 52.135 66.6814C51.921 66.7764 51.7357 66.9172 51.5797 67.1012C51.4237 67.2865 51.3008 67.5163 51.2137 67.7906C51.1259 68.0649 51.0817 68.379 51.0817 68.7317V69.186C51.0817 69.5605 51.1272 69.89 51.2176 70.1729C51.3079 70.4552 51.4315 70.6923 51.5882 70.8829C51.7442 71.0728 51.9295 71.2176 52.1428 71.3159C52.3567 71.4142 52.5875 71.462 52.8346 71.462C53.0972 71.462 53.3326 71.4262 53.542 71.3531C53.7507 71.2807 53.9269 71.1658 54.0725 71.0084C54.2175 70.8523 54.3319 70.6511 54.4138 70.404C54.4958 70.1576 54.5452 69.8608 54.5614 69.5127Z" fill="#2E1C17"/>
<path fill-rule="evenodd" clip-rule="evenodd" d="M40.1658 71.9415L38.8492 69.4211C39.2334 69.3029 39.5215 69.1043 39.7133 68.8247C39.9051 68.5444 40.0013 68.2024 40.0013 67.7985C40.0013 67.2666 39.8355 66.8435 39.5039 66.53C39.171 66.2159 38.6658 66.0591 37.9857 66.0591H36.1347V71.9415H36.7107V69.5386H38.1333C38.1834 69.5386 38.2295 69.536 38.2737 69.5307L39.5078 71.9415H40.1658ZM39.409 67.7985C39.409 68.1857 39.2958 68.482 39.0676 68.6898C38.8394 68.8971 38.4655 69.0007 37.9441 69.0007H36.7107V66.5971H37.9441C38.4597 66.5971 38.8329 66.704 39.0631 66.9172C39.2939 67.1291 39.409 67.4233 39.409 67.7985Z" fill="#2E1C17"/>
<path d="M29.9937 71.0004C30.2759 70.6923 30.417 70.236 30.417 69.631V66.0591H30.993V69.6728C30.993 70.0368 30.941 70.3615 30.837 70.6478C30.7329 70.9334 30.5873 71.1778 30.4007 71.379C30.2141 71.5809 29.9891 71.7343 29.7265 71.8413C29.4631 71.9475 29.1719 72 28.8546 72C28.5308 72 28.2375 71.9489 27.9736 71.8452C27.7103 71.7416 27.4853 71.5902 27.2987 71.391C27.1127 71.1931 26.9697 70.9486 26.8676 70.6604C26.7662 70.3722 26.7155 70.0427 26.7155 69.6728V66.0591H27.2915V69.631C27.2915 70.23 27.4333 70.685 27.7194 70.9971C28.0035 71.3073 28.3825 71.462 28.8546 71.462C29.3312 71.462 29.7109 71.3086 29.9937 71.0004Z" fill="#2E1C17"/>
<path fill-rule="evenodd" clip-rule="evenodd" d="M21.7793 68.7317C21.7793 68.2947 21.7214 67.9068 21.607 67.5681C21.4913 67.2287 21.3281 66.9431 21.1174 66.7106C20.9054 66.4789 20.6538 66.3015 20.3606 66.1806C20.0661 66.0611 19.7442 66 19.3931 66C19.0427 66 18.7202 66.0624 18.427 66.1853C18.1331 66.3088 17.8821 66.4868 17.6741 66.7193C17.4653 66.9511 17.3021 67.2367 17.1851 67.576C17.0661 67.9148 17.0076 68.3006 17.0076 68.7317V69.186C17.0076 69.6396 17.0655 70.0414 17.1806 70.3921C17.2963 70.7414 17.4595 71.0356 17.6701 71.2734C17.8815 71.5118 18.1324 71.6918 18.4231 71.8154C18.713 71.9396 19.0368 72 19.3931 72C19.7442 72 20.0661 71.9396 20.3606 71.8154C20.6538 71.6918 20.9042 71.5118 21.1135 71.2734C21.3216 71.0356 21.4841 70.7414 21.6024 70.3921C21.7201 70.0414 21.7793 69.6396 21.7793 69.186V68.7317ZM21.0511 67.7952C21.1421 68.0662 21.187 68.379 21.187 68.7317V69.186C21.187 69.5665 21.1434 69.8986 21.055 70.1809C20.9672 70.4645 20.8443 70.7016 20.685 70.8915C20.5257 71.0828 20.3365 71.2243 20.1174 71.3206C19.8983 71.4149 19.6565 71.462 19.3931 71.462C19.1357 71.462 18.897 71.4142 18.6779 71.3159C18.4588 71.2176 18.2696 71.0728 18.1103 70.8829C17.951 70.6923 17.8262 70.4552 17.7358 70.1729C17.6454 69.89 17.5999 69.5605 17.5999 69.186V68.7317C17.5999 68.373 17.6441 68.0576 17.7319 67.7859C17.819 67.5149 17.9426 67.2865 18.1025 67.1012C18.2612 66.9172 18.4497 66.7764 18.6695 66.6814C18.8892 66.5865 19.1305 66.5386 19.3931 66.5386C19.6512 66.5386 19.8899 66.5865 20.1096 66.6814C20.3287 66.7764 20.5179 66.9179 20.6772 67.1058C20.8359 67.2931 20.9601 67.5229 21.0511 67.7952Z" fill="#2E1C17"/>
<path d="M8.64108 66.0591L10.5175 69.2019L12.2288 66.0591H12.8536L10.7971 69.7983V71.9415H10.221V69.7983L8 66.0591H8.64108Z" fill="#2E1C17"/>
</svg>
