<svg width="24" height="26" viewBox="0 0 24 26" fill="none" xmlns="http://www.w3.org/2000/svg">
<path fill-rule="evenodd" clip-rule="evenodd" d="M6.16659 6.33333C6.16659 3.11167 8.77826 0.5 11.9999 0.5C15.2216 0.5 17.8333 3.11167 17.8333 6.33333V8.5H21.3333C21.5933 8.5 21.8099 8.69933 21.8315 8.95848L23.1649 24.9585C23.1765 25.0978 23.1292 25.2357 23.0345 25.3386C22.9398 25.4415 22.8064 25.5 22.6666 25.5H1.33325C1.19343 25.5 1.05999 25.4415 0.965312 25.3386C0.870635 25.2357 0.823369 25.0978 0.834981 24.9585L2.16831 8.95848C2.18991 8.69933 2.40654 8.5 2.66659 8.5H6.16659V6.33333ZM6.16659 9.5V11.6667H7.16659V9.5H16.8333V11.6667H17.8333V9.5H20.8732L22.1232 24.5H1.87665L3.12665 9.5H6.16659ZM16.8333 8.5H7.16659V6.33333C7.16659 3.66396 9.33054 1.5 11.9999 1.5C14.6693 1.5 16.8333 3.66396 16.8333 6.33333V8.5Z" fill="#B39166"/>
</svg>
